<svg width="177" height="76" viewBox="0 0 177 76" fill="none" xmlns="http://www.w3.org/2000/svg">
<path d="M11.4054 57V11.475H0.980371V4.5H28.8054V11.475H18.3804V57H11.4054ZM33.2444 57C31.6944 57 30.3944 56.475 29.3444 55.425C28.2944 54.325 27.7694 53.025 27.7694 51.525V24.975C27.7694 23.475 28.2944 22.2 29.3444 21.15C30.3944 20.05 31.6944 19.5 33.2444 19.5H43.4444C44.9444 19.5 46.2194 20.05 47.2694 21.15C48.3194 22.2 48.8444 23.475 48.8444 24.975V51.525C48.8444 53.025 48.3194 54.325 47.2694 55.425C46.2194 56.475 44.9444 57 43.4444 57H33.2444ZM37.5194 49.95H39.0944C39.8444 49.95 40.4944 49.7 41.0444 49.2C41.5944 48.65 41.8694 48 41.8694 47.25V29.25C41.8694 28.5 41.5944 27.875 41.0444 27.375C40.4944 26.825 39.8444 26.55 39.0944 26.55H37.5194C36.7694 26.55 36.1194 26.825 35.5694 27.375C35.0694 27.875 34.8194 28.5 34.8194 29.25V47.25C34.8194 48 35.0694 48.65 35.5694 49.2C36.1194 49.7 36.7694 49.95 37.5194 49.95ZM53.4634 75.75V19.5H69.1384C70.6884 19.5 71.9884 20.025 73.0384 21.075C74.0884 22.125 74.6134 23.425 74.6134 24.975V51.525C74.6134 53.075 74.0884 54.375 73.0384 55.425C71.9884 56.475 70.6884 57 69.1384 57H60.5134V75.75H53.4634ZM60.5134 49.95H64.8634C65.5634 49.95 66.1884 49.675 66.7384 49.125C67.2884 48.575 67.5634 47.95 67.5634 47.25V29.325C67.5634 28.475 67.2884 27.8 66.7384 27.3C66.1884 26.8 65.5634 26.55 64.8634 26.55H60.5134V49.95ZM98.1862 60.675L96.6862 57H87.6862C86.1862 57 84.9112 56.475 83.8612 55.425C82.8112 54.375 82.2862 53.1 82.2862 51.6V9.75C82.2862 8.3 82.8112 7.075 83.8612 6.075C84.9112 5.025 86.1862 4.5 87.6862 4.5H104.786C106.286 4.5 107.561 5.025 108.611 6.075C109.661 7.075 110.186 8.3 110.186 9.75V51.6C110.186 53.1 109.661 54.375 108.611 55.425C107.561 56.475 106.286 57 104.786 57H103.661L105.161 60.675H98.1862ZM92.0362 50.025H93.8362L92.1112 45.525H99.1612L100.886 50.025C101.486 49.925 102.011 49.625 102.461 49.125C102.911 48.575 103.136 47.975 103.136 47.325V14.025C103.136 13.325 102.886 12.725 102.386 12.225C101.886 11.675 101.236 11.4 100.436 11.4H92.0362C91.2362 11.4 90.5862 11.675 90.0862 12.225C89.5862 12.725 89.3362 13.325 89.3362 14.025V47.325C89.3362 48.075 89.5862 48.725 90.0862 49.275C90.5862 49.775 91.2362 50.025 92.0362 50.025ZM121.048 57C119.498 57 118.198 56.475 117.148 55.425C116.098 54.375 115.573 53.075 115.573 51.525V19.5H122.623V47.25C122.623 47.95 122.898 48.575 123.448 49.125C123.998 49.675 124.623 49.95 125.323 49.95H129.673V19.5H136.723V57H121.048ZM142.746 9.45V2.4L149.796 0.749996V7.8L142.746 9.45ZM142.896 57V21.15L149.946 19.5V57H142.896ZM155.197 57L166.597 26.55H155.197V19.5H176.347L164.797 49.95H176.347V57H155.197Z" fill="#509C18"/>
</svg>
